<?xml version="1.0" encoding="UTF-8" standalone="no"?>
<!-- Created with Inkscape (http://www.inkscape.org/) -->

<svg
   xmlns:dc="http://purl.org/dc/elements/1.1/"
   xmlns:cc="http://creativecommons.org/ns#"
   xmlns:rdf="http://www.w3.org/1999/02/22-rdf-syntax-ns#"
   xmlns:svg="http://www.w3.org/2000/svg"
   xmlns="http://www.w3.org/2000/svg"
   xmlns:sodipodi="http://sodipodi.sourceforge.net/DTD/sodipodi-0.dtd"
   xmlns:inkscape="http://www.inkscape.org/namespaces/inkscape"
   width="90"
   height="80"
   id="svg3187"
   version="1.1"
   inkscape:version="0.48.2 r9819"
   sodipodi:docname="BaryCentric.svg">
  <sodipodi:namedview
     id="base"
     pagecolor="#ffffff"
     bordercolor="#666666"
     borderopacity="1.0"
     inkscape:pageopacity="0.0"
     inkscape:pageshadow="2"
     inkscape:zoom="11.2"
     inkscape:cx="42.98375"
     inkscape:cy="56.736913"
     inkscape:document-units="px"
     inkscape:current-layer="layer1"
     showgrid="true"
     inkscape:snap-grids="true"
     inkscape:snap-object-midpoints="true"
     inkscape:window-width="1920"
     inkscape:window-height="987"
     inkscape:window-x="0"
     inkscape:window-y="0"
     inkscape:window-maximized="1"
     fit-margin-bottom="0"
     fit-margin-left="0"
     fit-margin-right="0"
     fit-margin-top="0">
    <inkscape:grid
       type="xygrid"
       id="grid3195"
       empspacing="5"
       visible="true"
       enabled="true"
       snapvisiblegridlinesonly="true" />
  </sodipodi:namedview>
  <defs
     id="defs3189">
    <marker
       inkscape:stockid="Arrow2Mend"
       orient="auto"
       refY="0"
       refX="0"
       id="Arrow2Mend"
       style="overflow:visible">
      <path
         id="path6337"
         style="font-size:12px;fill-rule:evenodd;stroke-width:0.625;stroke-linejoin:round"
         d="M 8.7185878,4.0337352 -2.2072895,0.01601326 8.7185884,-4.0017078 c -1.7454984,2.3720609 -1.7354408,5.6174519 -6e-7,8.035443 z"
         transform="scale(-0.6,-0.6)"
         inkscape:connector-curvature="0" />
    </marker>
    <marker
       inkscape:stockid="Arrow2Mstart"
       orient="auto"
       refY="0"
       refX="0"
       id="Arrow2Mstart"
       style="overflow:visible">
      <path
         id="path6334"
         style="font-size:12px;fill-rule:evenodd;stroke-width:0.625;stroke-linejoin:round"
         d="M 8.7185878,4.0337352 -2.2072895,0.01601326 8.7185884,-4.0017078 c -1.7454984,2.3720609 -1.7354408,5.6174519 -6e-7,8.035443 z"
         transform="scale(0.6,0.6)"
         inkscape:connector-curvature="0" />
    </marker>
    <marker
       inkscape:stockid="DotS"
       orient="auto"
       refY="0"
       refX="0"
       id="DotS"
       style="overflow:visible">
      <path
         id="path4038"
         d="m -2.5,-1 c 0,2.76 -2.24,5 -5,5 -2.76,0 -5,-2.24 -5,-5 0,-2.76 2.24,-5 5,-5 2.76,0 5,2.24 5,5 z"
         style="fill-rule:evenodd;stroke:#000000;stroke-width:1pt;marker-start:none;marker-end:none"
         transform="matrix(0.2,0,0,0.2,1.48,0.2)"
         inkscape:connector-curvature="0" />
    </marker>
    <marker
       inkscape:stockid="Arrow2Send"
       orient="auto"
       refY="0"
       refX="0"
       id="Arrow2Send"
       style="overflow:visible">
      <path
         id="path4003"
         style="font-size:12px;fill-rule:evenodd;stroke-width:0.625;stroke-linejoin:round"
         d="M 8.7185878,4.0337352 -2.2072895,0.01601326 8.7185884,-4.0017078 c -1.7454984,2.3720609 -1.7354408,5.6174519 -6e-7,8.035443 z"
         transform="matrix(-0.3,0,0,-0.3,0.69,0)"
         inkscape:connector-curvature="0" />
    </marker>
    <marker
       inkscape:stockid="DotM"
       orient="auto"
       refY="0"
       refX="0"
       id="DotM"
       style="overflow:visible">
      <path
         id="path4035"
         d="m -2.5,-1 c 0,2.76 -2.24,5 -5,5 -2.76,0 -5,-2.24 -5,-5 0,-2.76 2.24,-5 5,-5 2.76,0 5,2.24 5,5 z"
         style="fill-rule:evenodd;stroke:#000000;stroke-width:1pt;marker-start:none;marker-end:none"
         transform="matrix(0.4,0,0,0.4,2.96,0.4)"
         inkscape:connector-curvature="0" />
    </marker>
    <marker
       inkscape:stockid="Arrow2Sstart"
       orient="auto"
       refY="0"
       refX="0"
       id="Arrow2Sstart"
       style="overflow:visible">
      <path
         id="path4000"
         style="font-size:12px;fill-rule:evenodd;stroke-width:0.625;stroke-linejoin:round"
         d="M 8.7185878,4.0337352 -2.2072895,0.01601326 8.7185884,-4.0017078 c -1.7454984,2.3720609 -1.7354408,5.6174519 -6e-7,8.035443 z"
         transform="matrix(0.3,0,0,0.3,-0.69,0)"
         inkscape:connector-curvature="0" />
    </marker>
    <marker
       inkscape:stockid="Arrow1Mstart"
       orient="auto"
       refY="0"
       refX="0"
       id="Arrow1Mstart"
       style="overflow:visible">
      <path
         id="path3976"
         d="M 0,0 5,-5 -12.5,0 5,5 0,0 z"
         style="fill-rule:evenodd;stroke:#000000;stroke-width:1pt;marker-start:none"
         transform="matrix(0.4,0,0,0.4,4,0)"
         inkscape:connector-curvature="0" />
    </marker>
  </defs>
  <metadata
     id="metadata3192">
    <rdf:RDF>
      <cc:Work
         rdf:about="">
        <dc:format>image/svg+xml</dc:format>
        <dc:type
           rdf:resource="http://purl.org/dc/dcmitype/StillImage" />
        <dc:title></dc:title>
      </cc:Work>
    </rdf:RDF>
  </metadata>
  <g
     inkscape:label="Layer 1"
     inkscape:groupmode="layer"
     id="layer1"
     transform="translate(-16.103318,-41.20103)">
    <text
       xml:space="preserve"
       style="font-size:20px;font-style:normal;font-weight:normal;line-height:125%;letter-spacing:0px;word-spacing:0px;fill:#000000;fill-opacity:1;stroke:none;font-family:Sans"
       x="178.797"
       y="148.02312"
       id="text6246"
       sodipodi:linespacing="125%"><tspan
         sodipodi:role="line"
         id="tspan6248"
         x="178.797"
         y="148.02312" /></text>
    <path
       sodipodi:type="arc"
       style="fill:#000000;fill-opacity:1;fill-rule:nonzero;stroke:none"
       id="path4100"
       sodipodi:cx="10"
       sodipodi:cy="340"
       sodipodi:rx="2"
       sodipodi:ry="2"
       d="m 12,340 c 0,1.10457 -0.895431,2 -2,2 -1.1045695,0 -2,-0.89543 -2,-2 0,-1.10457 0.8954305,-2 2,-2 1.104569,0 2,0.89543 2,2 z"
       transform="translate(16.103318,-258.79897)" />
    <path
       sodipodi:type="arc"
       style="fill:#000000;fill-opacity:1;fill-rule:nonzero;stroke:none"
       id="path4158"
       sodipodi:cx="10"
       sodipodi:cy="340"
       sodipodi:rx="2"
       sodipodi:ry="2"
       d="m 12,340 c 0,1.10457 -0.895431,2 -2,2 -1.1045695,0 -2,-0.89543 -2,-2 0,-1.10457 0.8954305,-2 2,-2 1.104569,0 2,0.89543 2,2 z"
       transform="translate(76.103318,-288.79897)" />
    <path
       sodipodi:type="arc"
       style="fill:#000000;fill-opacity:1;fill-rule:nonzero;stroke:none"
       id="path4160"
       sodipodi:cx="10"
       sodipodi:cy="340"
       sodipodi:rx="2"
       sodipodi:ry="2"
       d="m 12,340 c 0,1.10457 -0.895431,2 -2,2 -1.1045695,0 -2,-0.89543 -2,-2 0,-1.10457 0.8954305,-2 2,-2 1.104569,0 2,0.89543 2,2 z"
       transform="translate(76.103318,-228.79897)" />
    <path
       transform="translate(61.103318,-258.79897)"
       d="m 12,340 c 0,1.10457 -0.895431,2 -2,2 -1.1045695,0 -2,-0.89543 -2,-2 0,-1.10457 0.8954305,-2 2,-2 1.104569,0 2,0.89543 2,2 z"
       sodipodi:ry="2"
       sodipodi:rx="2"
       sodipodi:cy="340"
       sodipodi:cx="10"
       id="path4257"
       style="fill:#000000;fill-opacity:0.40392157;fill-rule:nonzero;stroke:none"
       sodipodi:type="arc" />
    <text
       xml:space="preserve"
       style="font-size:6px;font-style:normal;font-weight:normal;line-height:125%;letter-spacing:0px;word-spacing:0px;fill:#000000;fill-opacity:1;stroke:none;font-family:Sans"
       x="91.103317"
       y="111.20103"
       id="text3133"
       sodipodi:linespacing="125%"><tspan
         sodipodi:role="line"
         id="tspan3135"
         x="91.103317"
         y="111.20103">A</tspan></text>
    <text
       sodipodi:linespacing="125%"
       id="text3137"
       y="56.201031"
       x="91.103317"
       style="font-size:6px;font-style:normal;font-weight:normal;line-height:125%;letter-spacing:0px;word-spacing:0px;fill:#000000;fill-opacity:1;stroke:none;font-family:Sans"
       xml:space="preserve"><tspan
         y="56.201031"
         x="91.103317"
         id="tspan3139"
         sodipodi:role="line">B</tspan></text>
    <text
       xml:space="preserve"
       style="font-size:6px;font-style:normal;font-weight:normal;line-height:125%;letter-spacing:0px;word-spacing:0px;fill:#000000;fill-opacity:1;stroke:none;font-family:Sans"
       x="26.103317"
       y="71.201027"
       id="text3141"
       sodipodi:linespacing="125%"><tspan
         sodipodi:role="line"
         id="tspan3143"
         x="26.103317"
         y="71.201027">C</tspan></text>
    <path
       style="fill:none;stroke:#000000;stroke-width:1px;stroke-linecap:butt;stroke-linejoin:miter;stroke-opacity:1"
       d="m 10,100 60,-30 0,60 z"
       id="path3145"
       inkscape:connector-curvature="0"
       transform="translate(16.103318,-18.79897)" />
    <path
       style="fill:none;stroke:#000000;stroke-width:0.80000001;stroke-linecap:butt;stroke-linejoin:miter;stroke-miterlimit:4;stroke-opacity:0.68627451;stroke-dasharray:none"
       d="M 20,98 63,77 53,98 z"
       id="path3147"
       inkscape:connector-curvature="0"
       transform="translate(16.103318,-18.79897)"
       sodipodi:nodetypes="cccc" />
    <path
       style="fill:none;stroke:#000000;stroke-width:0.80000001;stroke-linecap:butt;stroke-linejoin:miter;stroke-miterlimit:4;stroke-opacity:0.68627451;stroke-dasharray:none"
       d="m 67,78 -9,22 9,23 z"
       id="path3149"
       inkscape:connector-curvature="0"
       transform="translate(16.103318,-18.79897)"
       sodipodi:nodetypes="cccc" />
    <path
       style="fill:none;stroke:#000000;stroke-width:0.80000001;stroke-linecap:butt;stroke-linejoin:miter;stroke-miterlimit:4;stroke-opacity:0.68627451;stroke-dasharray:none"
       d="m 20,102 33,0 10,21 z"
       id="path3153"
       inkscape:connector-curvature="0"
       transform="translate(16.103318,-18.79897)"
       sodipodi:nodetypes="cccc" />
    <text
       xml:space="preserve"
       style="font-size:6px;font-style:normal;font-weight:normal;line-height:125%;letter-spacing:0px;word-spacing:0px;fill:#000000;fill-opacity:1;stroke:none;font-family:Sans"
       x="93.103317"
       y="81.201027"
       id="text3157"
       sodipodi:linespacing="125%"><tspan
         sodipodi:role="line"
         id="tspan3159"
         x="93.103317"
         y="81.201027">X</tspan></text>
    <path
       sodipodi:type="arc"
       style="fill:#000000;fill-opacity:0;fill-rule:nonzero;stroke:#000000;stroke-width:0.60000002;stroke-linejoin:round;stroke-miterlimit:4;stroke-opacity:1;stroke-dasharray:none;stroke-dashoffset:0;marker-start:url(#Arrow2Sstart);marker-end:none"
       id="path3180"
       sodipodi:cx="92.5"
       sodipodi:cy="90"
       sodipodi:rx="12.5"
       sodipodi:ry="5"
       d="m 80.753842,88.289899 c 2.361157,-2.594889 9.534186,-3.932825 16.02141,-2.988362 1.370207,0.199486 2.64259,0.49333 3.759598,0.868241"
       transform="translate(-8.6505242,-9.0888693)"
       sodipodi:start="3.4906585"
       sodipodi:end="5.4105207"
       sodipodi:open="true" />
  </g>
</svg>
